<svg height="512pt" viewBox="-124 0 512 512" width="512pt" xmlns="http://www.w3.org/2000/svg"><path d="m114.757812 26.484375h35.3125v97.101563h-35.3125zm0 0" fill="#bdc3c7"/><path d="m79.449219 132.414062h105.929687v52.964844h-105.929687zm0 0" fill="#7d6599"/><path d="m264.828125 238.34375v256c-.03125 9.738281-7.917969 17.628906-17.65625 17.65625h-229.515625c-9.738281-.027344-17.6289062-7.917969-17.65625-17.65625v-256c0-34.125 27.664062-61.792969 61.792969-61.792969h141.242187c34.125 0 61.792969 27.667969 61.792969 61.792969zm0 0" fill="#894b9d"/><path d="m168.34375 396.003906c1 5.914063 3.066406 11.597656 6.089844 16.773438 6.445312 11.125 23.480468 18.183594 37.429687 19.773437v-114.757812c0-39.019531-35.578125-70.621094-79.449219-70.621094-20.605468-.179687-40.570312 7.164063-56.144531 20.65625-14.597656 12.523437-23.089843 30.730469-23.304687 49.964844v114.757812s44.136718 0 44.136718-26.480469v-9.183593zm0 0" fill="#f0c419"/><path d="m79.449219 105.929688h105.929687c4.875 0 8.828125 3.953124 8.828125 8.828124v17.65625c0 4.875-3.953125 8.828126-8.828125 8.828126h-105.929687c-4.875 0-8.828125-3.953126-8.828125-8.828126v-17.65625c0-4.875 3.953125-8.828124 8.828125-8.828124zm0 0" fill="#cc66a1"/><path d="m88.277344 0h123.585937c11.703125 0 22.929688 4.648438 31.210938 12.925781 8.277343 8.28125 12.925781 19.507813 12.925781 31.210938h-167.722656c-9.753906 0-17.65625-7.902344-17.65625-17.652344v-8.828125c0-9.75 7.902344-17.65625 17.65625-17.65625zm0 0" fill="#d1d4d1"/><g fill="#955ba5"><path d="m52.964844 247.171875c0 4.875-3.953125 8.828125-8.828125 8.828125h-44.136719v-17.65625h44.136719c4.875 0 8.828125 3.953125 8.828125 8.828125zm0 0"/><path d="m264.828125 238.34375v17.65625h-44.136719c-4.878906 0-8.828125-3.953125-8.828125-8.828125s3.949219-8.828125 8.828125-8.828125zm0 0"/><path d="m52.964844 467.863281c0 4.875-3.953125 8.828125-8.828125 8.828125h-44.136719v-17.65625h44.136719c4.875 0 8.828125 3.953125 8.828125 8.828125zm0 0"/><path d="m264.828125 459.035156v17.65625h-44.136719c-4.878906 0-8.828125-3.953125-8.828125-8.828125s3.949219-8.828125 8.828125-8.828125zm0 0"/></g><path d="m176.550781 335.449219v34.78125c.15625 24.117187-18.96875 43.949219-43.078125 44.667969h-2.117187c-24.109375-.71875-43.234375-20.550782-43.078125-44.667969v-26.308594s39.546875-5.382813 61.261718-24.714844c6.050782 9.253907 16 15.238281 27.011719 16.242188zm0 0" fill="#fdd7ad"/><path d="m176.550781 326.621094c-5.730469-.585938-11.09375-3.101563-15.210937-7.132813 4.300781-4.914062 7.492187-10.691406 9.359375-16.949219.945312-3.0625.15625-6.394531-2.058594-8.710937-2.214844-2.3125-5.511719-3.246094-8.613281-2.433594-3.097656.8125-5.515625 3.238281-6.3125 6.34375-6.832032 24.097657-50.421875 35.210938-66.640625 37.460938-4.578125.652343-7.875 4.730469-7.5625 9.34375.316406 4.613281 4.140625 8.203125 8.765625 8.226562.402344 0 .808594-.027343 1.207031-.082031 20.8125-3.070312 40.777344-10.34375 58.6875-21.378906 7.472656 7.765625 17.617187 12.402344 28.378906 12.96875 4.875 0 8.828125-3.953125 8.828125-8.828125s-3.953125-8.828125-8.828125-8.828125zm0 0" fill="#f3d55b"/></svg>