<svg height="512" viewBox="0 0 54 58" width="512" xmlns="http://www.w3.org/2000/svg"><g id="Page-1" fill="none" fill-rule="evenodd"><g id="009---Drink" fill-rule="nonzero"><path id="Shape" d="m30 2v4h-6v-4c.0032948-1.10320187.8967981-1.9967052 2-2h2c1.1032019.0032948 1.9967052.89679813 2 2z" fill="#f0c419"/><path id="Rectangle-path" d="m24 6.52h6v14.48h-6z" fill="#24ae5f"/><path id="Shape" d="m41 26c-.4539828.0015645-.8520562-.302883-.9694404-.7414303s.0753783-.9011415.4694404-1.1265697l7-4c.4777563-.2582022 1.0742611-.0879105 1.3436968.3836019.2694356.4715123.1133075 1.0718799-.3516968 1.3523981l-7 4c-.1496429.0862485-.3192813.1317613-.492.132z" fill="#95a5a5"/><path id="Shape" d="m52 24h-14c-1.1032019.0032948-1.9967052.8967981-2 2v30c.0032948 1.1032019.8967981 1.9967052 2 2h14c1.1032019-.0032948 1.9967052-.8967981 2-2v-30c-.0032948-1.1032019-.8967981-1.9967052-2-2z" fill="#bdc3c7"/><path id="Shape" d="m5 26c-.45398276.0015645-.85205619-.302883-.96944038-.7414303-.11738418-.4385473.07537831-.9011415.46944038-1.1265697l7-4c.4777563-.2582022 1.0742611-.0879105 1.3436968.3836019.2694356.4715123.1133075 1.0718799-.3516968 1.3523981l-7 4c-.14964286.0862485-.31928134.1317613-.492.132z" fill="#95a5a5"/><path id="Shape" d="m16 24h-14c-1.10320187.0032948-1.9967052.8967981-2 2v30c.0032948 1.1032019.89679813 1.9967052 2 2h14c1.1032019-.0032948 1.9967052-.8967981 2-2v-30c-.0032948-1.1032019-.8967981-1.9967052-2-2z" fill="#bdc3c7"/><path id="Shape" d="m36 49v7c-.0032948 1.1032019-.8967981 1.9967052-2 2h-14c-1.1032019-.0032948-1.9967052-.8967981-2-2v-7z" fill="#4fba6f"/><path id="Shape" d="m36 28 .0000037 7h-18.0000074l.0000037-7c-.0034665-3.8139218 2.4023008-7.2140729 6-8.48 1.9399133-.6933206 4.0600867-.6933206 6 0 3.5976992 1.2659271 6.0034665 4.6660782 6 8.48z" fill="#4fba6f"/><rect id="Rectangle-path" fill="#4fba6f" height="4" rx="1" width="8" x="23" y="4"/><path id="Rectangle-path" d="m18 33h18v18h-18z" fill="#f9eab0"/><path id="Shape" d="m22 28c-.5522847 0-1-.4477153-1-1 0-3.678 3.533-4.9 3.684-4.949.5246705-.1759027 1.0925973.1068295 1.2685.6315s-.1068295 1.0925973-.6315 1.2685c-1.3206727.4512219-2.237684 1.655861-2.321 3.049 0 .2652165-.1053568.5195704-.2928932.7071068s-.4418903.2928932-.7071068.2928932z" fill="#fff"/><g fill="#e64c3c"><circle id="Oval" cx="23" cy="39" r="1"/><circle id="Oval" cx="27" cy="39" r="1"/><circle id="Oval" cx="25" cy="42" r="1"/><circle id="Oval" cx="29" cy="42" r="1"/><circle id="Oval" cx="27" cy="45" r="1"/><circle id="Oval" cx="31" cy="39" r="1"/></g><path id="Shape" d="m54 52v4c-.0032948 1.1032019-.8967981 1.9967052-2 2h-14c-1.1032019-.0032948-1.9967052-.8967981-2-2v-4z" fill="#95a5a5"/><path id="Shape" d="m54 30v22h-12.99c.0804608-3.8162812 1.2686796-7.5268592 3.42-10.68 1.2-1.71 2.69-3.2 3.61-5.12.8999184-1.9347342 1.1759956-4.1014155.79-6.2z" fill="#c03a2b"/><path id="Shape" d="m48.04 36.2c-.92 1.92-2.41 3.41-3.61 5.12-2.1513204 3.1531408-3.3395392 6.8637188-3.42 10.68h-5.01v-22h12.83c.3859956 2.0985845.1099184 4.2652658-.79 6.2z" fill="#e64c3c"/><path id="Shape" d="m18 52v4c-.0032948 1.1032019-.8967981 1.9967052-2 2h-14c-1.10320187-.0032948-1.9967052-.8967981-2-2v-4z" fill="#95a5a5"/><path id="Shape" d="m12.04 36.2c-.92 1.92-2.41 3.41-3.61 5.12-2.1513204 3.1531408-3.33953917 6.8637188-3.42 10.68h-5.01v-22h12.83c.3859956 2.0985845.1099184 4.2652658-.79 6.2z" fill="#3b97d3"/><path id="Shape" d="m18 30v22h-12.99c.08046083-3.8162812 1.2686796-7.5268592 3.42-10.68 1.2-1.71 2.69-3.2 3.61-5.12.8999184-1.9347342 1.1759956-4.1014155.79-6.2z" fill="#2980ba"/></g></g></svg>