<svg id="Capa_1" enable-background="new 0 0 512 512" height="512" viewBox="0 0 512 512" width="512" xmlns="http://www.w3.org/2000/svg"><g><g><path d="m354.272 302h-108.544l7.515-20.229c1.216-3.267 1.758-6.27 1.758-9.771 0-8.525-3.589-16.538-9.858-21.987l-5.669-4.951.571-7.515c2.401-31.143 28.739-55.547 59.955-55.547s57.554 24.404 59.956 55.547l.571 7.515-5.669 4.951c-6.269 5.449-9.858 13.462-9.858 21.987 0 3.501.542 6.504 1.758 9.771z" fill="#ff9f40"/></g><g><path d="m204.272 302h-108.544l7.515-20.229c1.216-3.267 1.758-6.27 1.758-9.771 0-8.525-3.589-16.538-9.858-21.987l-5.669-4.951.571-7.515c2.401-31.143 28.739-55.547 59.955-55.547s57.554 24.404 59.956 55.547l.571 7.515-5.669 4.951c-6.269 5.449-9.858 13.462-9.858 21.987 0 3.501.542 6.504 1.758 9.771z" fill="#ffbe40"/></g><g><g><path d="m434.82 10.523-10.499 28.2-14.101-5.099c-23.101-8.701-49.2 3.3-57.599 26.699l-5.101 14.101-14.099-5.099-14.099-5.101 5.099-14.099c5.7-16.199 16.5-28.801 30-37.2 18.9-12.301 43.5-15.901 66.299-7.5z" fill="#91f2b1"/></g></g><g><path d="m277.734 302h-105.468c-2.014-6.366-7.266-15.404-7.266-30 0-17.197 7.339-33.457 20.142-44.604 21.24-19.658 58.154-19.951 80.039.293 12.48 10.854 19.819 27.114 19.819 44.311 0 14.627-5.084 23.103-7.266 30z" fill="#ffdf40"/></g><g><path d="m127.734 302h-105.468c-2.014-6.366-7.266-15.404-7.266-30 0-33.091 26.909-60 60-60 31.989 0 60 26.015 60 60 0 14.627-5.084 23.103-7.266 30z" fill="#ffdf40"/></g><g><path d="m427.734 302h-105.468c-2.014-6.366-7.266-15.404-7.266-30 0-33.116 27.114-60 60-60 33.091 0 60 26.909 60 60 0 14.627-5.084 23.103-7.266 30z" fill="#ffbe40"/></g><path d="m225 212.586v89.414h52.734c2.181-6.898 7.266-15.374 7.266-30 0-17.197-7.339-33.457-19.819-44.312-10.923-10.103-25.589-15.084-40.181-15.102z" fill="#ffbe40"/><g><path d="m330 512c-18.267 0-35.889-5.698-52.5-16.948-33.223 22.5-71.777 22.5-105 0-16.611 11.25-34.233 16.948-52.5 16.948-66.167 0-120-74.019-120-165 0-42.1 11.274-68.165 12.949-75h424.102c1.522 6.212 12.949 33.394 12.949 75 0 90.981-53.833 165-120 165z" fill="#ff7f40"/></g><path d="m225 272v239.927c17.944 0 35.889-5.625 52.5-16.875 16.611 11.25 34.233 16.948 52.5 16.948 66.167 0 120-74.019 120-165 0-41.607-11.428-68.789-12.949-75z" fill="#f25a3c"/><path d="m330 362c-4.455 0-217.165 0-210 0v30h30v30h30v-30h90v30h30v-30h30z" fill="#ffdf40"/><path d="m225 392h45v30h30v-30h30v-30c-2.166 0-53.578 0-105 0z" fill="#ffbe40"/><path d="m434.82 10.523-10.499 28.2-14.101-5.099c-23.101-8.701-49.2 3.3-57.599 26.699l-5.101 14.101-14.099-5.099 10.201-28.2 10.8-28.2c18.9-12.301 43.5-15.901 66.299-7.5z" fill="#73e6ac"/><g id="Candies_54_"><g><path d="m510.637 229.704-208.03-75.82-208.03-75.82c4.421-5.857 7.796-10.329 12.217-16.187 48.269-63.954 105.581-68.604 138.252-56.689 21.175 7.713 35.176 22.548 43.477 33.999 13.701-3.415 33.942-5.77 55.166 1.948 21.224 7.736 35.211 22.577 43.491 34.014 13.697-3.406 33.94-5.765 55.166 1.948 32.63 11.893 73.522 52.475 69.36 132.349-.387 7.33-.682 12.927-1.069 20.258z" fill="#ff7f40"/></g></g><path d="m511.706 209.445c4.162-79.874-36.731-120.456-69.36-132.349-21.226-7.714-41.468-5.356-55.166-1.948-8.28-11.437-22.267-26.277-43.491-34.014l-41.082 112.749 208.03 75.82c.386-7.33.683-12.928 1.069-20.258z" fill="#f25a3c"/></g></svg>