<svg height="512" viewBox="0 0 58 58" width="512" xmlns="http://www.w3.org/2000/svg"><g id="Page-1" fill="none" fill-rule="evenodd"><g id="020---Cleaning-Products" fill-rule="nonzero"><path id="Shape" d="m57.58 33-5.58-23h3c1.1032019-.0032948 1.9967052-.89679813 2-2v-6c-.0032948-1.10320187-.8967981-1.9967052-2-2h-14.35c-.5559367.00178311-1.1097368.06891039-1.65.2-.5132153.1199576-1.0101235.30126194-1.48.54l-4.52 2.26h-2c-1.1032019.0032948-1.9967052.89679813-2 2 .0081672 1.10116878.8988312 1.99183278 2 2h2l3.017 1.509c.0978565 3.6399034-.8178894 7.2353747-2.645 10.385-.2737673.4794043-.1072509 1.0899643.372 1.364.1505242.0867566.3212641.1322873.495.132.3583279.001065.6898369-.1896767.869-.5 1.8275083-3.1680236 2.8314562-6.7437287 2.92-10.4.3156961.12776023.6406281.23139082.972.31.5402632.13108961 1.0940633.19821689 1.65.2h1.35l-5.58 23c-.2796871 1.0708742-.4208391 2.1732047-.42 3.28v17.72c0 2.209139 1.790861 4 4 4h14c2.209139 0 4-1.790861 4-4v-17.72c.0008391-1.1067953-.1403129-2.2091258-.42-3.28z" fill="#7d6599"/><path id="Shape" d="m34.239 20.39c-.1737359.0002873-.3444758-.0452434-.495-.132-.4792509-.2740357-.6457673-.8845957-.372-1.364 1.9042039-3.281267 2.8169983-7.0439388 2.628-10.833-.0166867-.26517412.072843-.52608743.2488272-.72514849.1759843-.19906107.4239533-.3199027.6891728-.33585151.2666173-.02172803.530575.06613905.7309756.24332946.2004007.17719042.3199347.42839935.3310244.69567054.2115063 4.1779442-.7923154 8.3276531-2.89 11.947-.1784953.3124858-.5111292.5049628-.871.504z" fill="#7d6599"/><path id="Shape" d="m39 .2v9.6c-.5132153-.1199576-1.0101235-.30126194-1.48-.54l-4.52-2.26v-4l4.52-2.26c.4698765-.23873806.9667847-.4200424 1.48-.54z" fill="#464f5d"/><path id="Shape" d="m33 3v4h-2c-1.1011688-.00816722-1.9918328-.89883122-2-2 .0032948-1.10320187.8967981-1.9967052 2-2z" fill="#393f4a"/><path id="Shape" d="m58 37v17c0 2.209139-1.790861 4-4 4h-14c-2.209139 0-4-1.790861-4-4v-17z" fill="#b49aca"/><path id="Shape" d="m58 36.28.0000037.72h-22.0000074l.0000037-.72c-.0008391-1.1067953.1403129-2.2091258.42-3.28l5.58-23h3v7c0 .5522847.4477153 1 1 1h2c.5522847 0 1-.4477153 1-1v-7h3l5.58 23c.2796871 1.0708742.4208391 2.1732047.42 3.28z" fill="#84b5cb"/><path id="Shape" d="m22 4v6h-12v-6c0-2.209139 1.790861-4 4-4h4c2.209139 0 4 1.790861 4 4z" fill="#3b97d3"/><path id="Shape" d="m30 46c-2-5 1-12 1-21s-9-15-9-15h-12s-9 6-9 15 3 16 1 21-3 12 4 12h20c7 0 6-7 4-12zm-7-13c-2.21 0-4-3.36-4-7.5s1.79-7.5 4-7.5 4 3.36 4 7.5-1.79 7.5-4 7.5z" fill="#26b99a"/><path id="Shape" d="m7 54h-2c-.55228475 0-1-.4477153-1-1s.44771525-1 1-1h2c.55228475 0 1 .4477153 1 1s-.44771525 1-1 1z" fill="#65ddb9"/><path id="Shape" d="m27 54h-16c-.5522847 0-1-.4477153-1-1s.4477153-1 1-1h16c.5522847 0 1 .4477153 1 1s-.4477153 1-1 1z" fill="#65ddb9"/><path id="Shape" d="m24 50h-16c-.55228475 0-1-.4477153-1-1s.44771525-1 1-1h16c.5522847 0 1 .4477153 1 1s-.4477153 1-1 1z" fill="#65ddb9"/><path id="Shape" d="m48 18v19h-2v-19c0-.5522847.4477153-1 1-1s1 .4477153 1 1z" fill="#7f8c8d"/><path id="Shape" d="m48 37v15c0 .5522847-.4477153 1-1 1s-1-.4477153-1-1v-15z" fill="#955ba5"/><g fill="#ecf0f1"><circle id="Oval" cx="40" cy="41" r="1"/><circle id="Oval" cx="43" cy="47" r="1"/><circle id="Oval" cx="54" cy="41" r="1"/><circle id="Oval" cx="54" cy="53" r="1"/><circle id="Oval" cx="51" cy="47" r="1"/><circle id="Oval" cx="41" cy="54" r="1"/></g><path id="Shape" d="m49 10v7c0 .5522847-.4477153 1-1 1h-2c-.5522847 0-1-.4477153-1-1v-7z" fill="#3b97d3"/></g></g></svg>