<svg height="512" viewBox="0 0 58 58" width="512" xmlns="http://www.w3.org/2000/svg"><g id="Page-1" fill="none" fill-rule="evenodd"><g id="024---Beer-Crate" fill-rule="nonzero"><path id="Shape" d="m56 26h-54c-1.10320187.0032948-1.9967052.8967981-2 2v24c0 3.3137085 2.6862915 6 6 6h46c3.3137085 0 6-2.6862915 6-6v-24c-.0032948-1.1032019-.8967981-1.9967052-2-2z" fill="#cb8252"/><path id="Shape" d="m15 58h-4c0-9.53-11-11-11-11v-4s15 2 15 15z" fill="#a56a43"/><path id="Shape" d="m11 58h-5c-3.3137085 0-6-2.6862915-6-6v-5s11 1.47 11 11z" fill="#805333"/><rect id="Rectangle-path" fill="#a56a43" height="6" rx="2" width="18" x="20" y="30"/><path id="Shape" d="m58 43v4s-11 1.47-11 11h-4c0-13 15-15 15-15z" fill="#a56a43"/><rect id="Rectangle-path" fill="#805333" height="6" rx="2" width="18" x="20" y="30"/><path id="Shape" d="m58 47v5c0 3.3137085-2.6862915 6-6 6h-5c0-9.53 11-11 11-11z" fill="#805333"/><path id="Shape" d="m17 18 .0000001 8h-14.00000019l.00000009-8c-.00026311-1.2139437.55172704-2.3620832 1.5-3.12 1.63483836-1.3974099 2.55313716-3.4569704 2.5-5.607v-5.273h6v5.273c-.0531372 2.1500296.8651616 4.2095901 2.5 5.607.948273.7579168 1.5002631 1.9060563 1.5 3.12z" fill="#24ae5f"/><path id="Shape" d="m9 0h2c1.6568542 0 3 1.34314575 3 3 0 .55228475-.4477153 1-1 1h-6c-.55228475 0-1-.44771525-1-1 0-1.65685425 1.34314575-3 3-3z" fill="#f3d55b"/><path id="Shape" d="m7 26c0-4.418 1.343-8 3-8s3 3.582 3 8" fill="#f9eab0"/><path id="Shape" d="m36 18 .0000001 8h-14.0000002l.0000001-8c-.0002631-1.2139437.551727-2.3620832 1.5-3.12 1.6348384-1.3974099 2.5531372-3.4569704 2.5-5.607v-5.273h6v5.273c-.0531372 2.1500296.8651616 4.2095901 2.5 5.607.948273.7579168 1.5002631 1.9060563 1.5 3.12z" fill="#24ae5f"/><path id="Shape" d="m28 0h2c1.6568542 0 3 1.34314575 3 3 0 .55228475-.4477153 1-1 1h-6c-.5522847 0-1-.44771525-1-1 0-1.65685425 1.3431458-3 3-3z" fill="#f3d55b"/><path id="Shape" d="m26 26c0-4.418 1.343-8 3-8s3 3.582 3 8" fill="#f9eab0"/><path id="Shape" d="m55 18 .0000001 8h-14.0000002l.0000001-8c-.0002631-1.2139437.551727-2.3620832 1.5-3.12 1.6348384-1.3974099 2.5531372-3.4569704 2.5-5.607v-5.273h6v5.273c-.0531372 2.1500296.8651616 4.2095901 2.5 5.607.948273.7579168 1.5002631 1.9060563 1.5 3.12z" fill="#24ae5f"/><path id="Shape" d="m47 0h2c1.6568542 0 3 1.34314575 3 3 0 .55228475-.4477153 1-1 1h-6c-.5522847 0-1-.44771525-1-1 0-1.65685425 1.3431458-3 3-3z" fill="#f3d55b"/><path id="Shape" d="m45 26c0-4.418 1.343-8 3-8s3 3.582 3 8" fill="#f9eab0"/></g></g></svg>