<?xml version="1.0" encoding="iso-8859-1"?>
<!-- Generator: Adobe Illustrator 19.0.0, SVG Export Plug-In . SVG Version: 6.00 Build 0)  -->
<svg version="1.1" id="Capa_1" xmlns="http://www.w3.org/2000/svg" xmlns:xlink="http://www.w3.org/1999/xlink" x="0px" y="0px"
	 viewBox="0 0 512 512" style="enable-background:new 0 0 512 512;" xml:space="preserve">
<path style="fill:#FADC60;" d="M369.13,158.956c-11.688,0-21.163-9.475-21.163-21.163V82.584c0-10.829-8.81-19.639-19.639-19.639
	h-78.159c-10.829,0-19.639,8.81-19.639,19.639v55.209c0,11.688-9.475,21.163-21.163,21.163s-21.163-9.475-21.163-21.163V82.584
	c0-34.168,27.797-61.965,61.965-61.965h78.159c34.168,0,61.965,27.797,61.965,61.965v55.209
	C390.293,149.482,380.819,158.956,369.13,158.956z"/>
<path style="fill:#FD6F71;" d="M512,205.751v243.011c0,23.537-19.08,42.617-42.617,42.617H187.173l-43.756-164.084l43.756-121.544
	l171.376-46.794L512,205.751"/>
<g>
	<path style="fill:#3A484A;" d="M257.856,345.092c-4.267,0-7.726-3.459-7.726-7.726v-17.488c0-4.267,3.459-7.726,7.726-7.726
		c4.267,0,7.726,3.459,7.726,7.726v17.488C265.583,341.632,262.123,345.092,257.856,345.092z"/>
	<path style="fill:#3A484A;" d="M451.12,345.092c-4.267,0-7.726-3.459-7.726-7.726v-17.488c0-4.267,3.459-7.726,7.726-7.726
		s7.726,3.459,7.726,7.726v17.488C458.847,341.632,455.387,345.092,451.12,345.092z"/>
	<path style="fill:#3A484A;" d="M354.488,354.427c-11.526,0-22.339-4.809-29.667-13.194c-2.808-3.213-2.481-8.094,0.732-10.902
		c3.212-2.807,8.093-2.481,10.902,0.732c4.394,5.027,10.967,7.911,18.032,7.911c7.065,0,13.639-2.883,18.033-7.911
		c2.807-3.213,7.688-3.541,10.902-0.732c3.213,2.808,3.541,7.689,0.731,10.902C376.827,349.618,366.013,354.427,354.488,354.427z"/>
</g>
<g>
	<path style="fill:#E6CB59;" d="M209.367,158.956c11.688,0,21.163-9.475,21.163-21.163V82.584c0-0.448,0.037-0.886,0.067-1.327
		h-42.36c-0.009,0.443-0.034,0.882-0.034,1.327v55.209C188.204,149.482,197.678,158.956,209.367,158.956z"/>
	<path style="fill:#E6CB59;" d="M347.967,82.584v55.209c0,11.688,9.475,21.163,21.163,21.163s21.163-9.475,21.163-21.163V82.584
		c0-0.445-0.025-0.884-0.034-1.327h-42.36C347.929,81.698,347.967,82.136,347.967,82.584z"/>
</g>
<path style="fill:#E36465;" d="M512,205.751c0-51.687-41.901-93.588-93.589-93.588l0,0H93.584l93.589,93.588H512z"/>
<path style="fill:#42C3E2;" d="M93.584,112.159C41.892,112.159,0,154.063,0,205.753l93.589,29.671l93.589-29.671
	C187.178,154.063,145.274,112.159,93.584,112.159z"/>
<path style="fill:#6EE3FF;" d="M187.178,205.753v285.628H42.612C19.079,491.382,0,472.293,0,448.76V205.753H187.178z"/>
<g>
</g>
<g>
</g>
<g>
</g>
<g>
</g>
<g>
</g>
<g>
</g>
<g>
</g>
<g>
</g>
<g>
</g>
<g>
</g>
<g>
</g>
<g>
</g>
<g>
</g>
<g>
</g>
<g>
</g>
</svg>
