<svg height="512" viewBox="0 0 58 58" width="512" xmlns="http://www.w3.org/2000/svg"><g id="Page-1" fill="none" fill-rule="evenodd"><g id="016---Dog-Food" fill-rule="nonzero"><path id="Shape" d="m22 56h-20c-1.10320187-.0032948-1.9967052-.8967981-2-2v-38c0-3.3137085 2.6862915-6 6-6h26c3.3137085 0 6 2.6862915 6 6v23z" fill="#3b97d3"/><path id="Shape" d="m7 52c0 .5522847-.44771525 1-1 1h-6v-2h6c.55228475 0 1 .4477153 1 1z" fill="#2980ba"/><path id="Shape" d="m22 53h-12c-.55228475 0-1-.4477153-1-1s.44771525-1 1-1h12c.5522847 0 1 .4477153 1 1s-.4477153 1-1 1z" fill="#2980ba"/><path id="Shape" d="m38 1v5c0 2.209139-1.790861 4-4 4h-30c-2.209139 0-4-1.790861-4-4v-5c0-.55228475.44771525-1 1-1h36c.5522847 0 1 .44771525 1 1z" fill="#f3d55b"/><g fill="#f0c419"><path id="Shape" d="m6 0v4c0 .55228475-.44771525 1-1 1s-1-.44771525-1-1v-4z"/><path id="Shape" d="m10 0v4c0 .55228475-.44771525 1-1 1s-1-.44771525-1-1v-4z"/><path id="Shape" d="m14 0v4c0 .55228475-.4477153 1-1 1s-1-.44771525-1-1v-4z"/><path id="Shape" d="m18 0v4c0 .55228475-.4477153 1-1 1s-1-.44771525-1-1v-4z"/><path id="Shape" d="m22 0v4c0 .55228475-.4477153 1-1 1s-1-.44771525-1-1v-4z"/><path id="Shape" d="m26 0v4c0 .55228475-.4477153 1-1 1s-1-.44771525-1-1v-4z"/><path id="Shape" d="m30 0v4c0 .55228475-.4477153 1-1 1s-1-.44771525-1-1v-4z"/><path id="Shape" d="m34 0v4c0 .55228475-.4477153 1-1 1s-1-.44771525-1-1v-4z"/></g><path id="Shape" d="m29.89 29.92c-.56 3.91-3.35 7.08-10.89 7.08s-10.33-3.17-10.89-7.08c-.24998538-3.0089025.22673084-6.0338213 1.39-8.82 1.1651198-2.9450639 3.4903913-5.2811843 6.43-6.46.01-.01.03-.01.04-.02 1.9367904-.8199595 4.1232096-.8199595 6.06 0 .01.01.03.01.04.02 2.9396087 1.1788157 5.2648802 3.5149361 6.43 6.46 1.1632692 2.7861787 1.6399854 5.8110975 1.39 8.82z" fill="#f9eab0"/><path id="Shape" d="m15.97 14.61v.01c-.01.01-.03.01-.04.02-2.9396087 1.1788157-5.2648802 3.5149361-6.43 6.46-1.16326916 2.7861787-1.63998538 5.8110975-1.39 8.82-.75961256-.1437867-1.46920193-.4813583-2.06-.98-1.19685771-1.1738484-1.90740283-2.7556147-1.99-4.43-.21129279-2.1509738.13302562-4.3201797 1-6.3.46498152-1.2125801 1.27067231-2.2648401 2.32-3.03 1.09006631-.6419623 2.31713818-1.015568 3.58-1.09 1.6872331-.2471836 3.4094968-.0684257 5.01.52z" fill="#e4c05c"/><path id="Shape" d="m33.94 24.51c-.0825972 1.6743853-.7931423 3.2561516-1.99 4.43-.5907981.4986417-1.3003874.8362133-2.06.98.2499854-3.0089025-.2267308-6.0338213-1.39-8.82-1.1651198-2.9450639-3.4903913-5.2811843-6.43-6.46-.01-.01-.03-.01-.04-.02v-.01c1.6005032-.5884257 3.3227669-.7671836 5.01-.52 1.2628618.074432 2.4899337.4480377 3.58 1.09 1.0493277.7651599 1.8550185 1.8174199 2.32 3.03.8669744 1.9798203 1.2112928 4.1490262 1 6.3z" fill="#e4c05c"/><path id="Shape" d="m55.72 44.97v.03l-14.72 10-15.86-10c-.4043818-1.6008529-.0463499-3.2987362.97-4.6 1.134858-1.308419 3.0704613-1.5578968 4.5-.58.6515728-1.3075558 1.7519567-2.3369472 3.1-2.9 1.4028819-.5446585 2.9968792-.0962194 3.91 1.1.1020183-.2840945.2291895-.5585165.38-.82 1.0559312-1.8429002 3.0489473-2.9458407 5.171259-2.8617887 2.1223117.0840519 4.0218607 1.3411534 4.928741 3.2617887 2.1641298-.627777 4.4989524-.0734939 6.15 1.46 1.5663625 1.5345494 2.1349385 3.820457 1.47 5.91z" fill="#a56a43"/><ellipse id="Oval" cx="19" cy="31.003" fill="#603e26" rx="4" ry="2"/><path id="Shape" d="m17 23c-.0016855.0969458-.008361.1937406-.02.29-.1300102.8812989-.8272326 1.5703667-1.71 1.69-.0889888.0165897-.1795381.0232971-.27.02-.0668257.0019152-.1336986-.0014284-.2-.01-.0237986.0023715-.0478174-.0010597-.07-.01-.8827674-.1196333-1.5799898-.8087011-1.71-1.69-.011639-.0962594-.0183145-.1930542-.02-.29 0-1.1045695.8954305-2 2-2s2 .8954305 2 2z" fill="#fff"/><path id="Shape" d="m16.98 23.29c-.1300102.8812989-.8272326 1.5703667-1.71 1.69-.0889888.0165897-.1795381.0232971-.27.02-.0668257.0019152-.1336986-.0014284-.2-.01-.0237986.0023715-.0478174-.0010597-.07-.01-.8827674-.1196333-1.5799898-.8087011-1.71-1.69.2779175-.8395042 1.09978-1.37496 1.98-1.29.88022-.08496 1.7020825.4504958 1.98 1.29z" fill="#5f5346"/><path id="Shape" d="m25 23c-.0016855.0969458-.008361.1937406-.02.29-.1300102.8812989-.8272326 1.5703667-1.71 1.69-.0889888.0165897-.1795381.0232971-.27.02-.0668257.0019152-.1336986-.0014284-.2-.01-.0237986.0023715-.0478174-.0010597-.07-.01-.8827674-.1196333-1.5799898-.8087011-1.71-1.69-.011639-.0962594-.0183145-.1930542-.02-.29 0-1.1045695.8954305-2 2-2s2 .8954305 2 2z" fill="#fff"/><path id="Shape" d="m24.98 23.29c-.1300102.8812989-.8272326 1.5703667-1.71 1.69-.0889888.0165897-.1795381.0232971-.27.02-.0668257.0019152-.1336986-.0014284-.2-.01-.0237986.0023715-.0478174-.0010597-.07-.01-.8827674-.1196333-1.5799898-.8087011-1.71-1.69.2779175-.8395042 1.09978-1.37496 1.98-1.29.88022-.08496 1.7020825.4504958 1.98 1.29z" fill="#5f5346"/><rect id="Rectangle-path" fill="#e64c3c" height="13" rx="2" width="36" x="22" y="45"/><path id="Shape" d="m50 49c0 .5522847-.4477153 1-1 1h-27v-2h27c.5522847 0 1 .4477153 1 1z" fill="#c03a2b"/><path id="Shape" d="m58 48v2h-4c-.5522847 0-1-.4477153-1-1s.4477153-1 1-1z" fill="#c03a2b"/></g></g></svg>